<svg xmlns="http://www.w3.org/2000/svg" width="64" height="64" viewBox="0 0 64 64" id="svg2"><defs /><rect y="37.5" x="28" height="7.000001" width="8" style="fill:#42a5f5;fill-opacity:1;stroke:none" /><rect style="fill:#42a5f5;fill-opacity:1;stroke:none" width="8" height="7.000001" x="28" y="21.5" /><rect style="fill:#09b69e;fill-opacity:1;stroke:none" width="52" height="12" x="6" y="43" rx="2.5" ry="2.5000005" /><rect ry="2.5000005" rx="2.5" y="27" x="6" height="12" width="52" style="fill:#42a5f5;fill-opacity:1;stroke:none" /><rect style="fill:#486cd7;fill-opacity:1;stroke:none" width="52" height="12" x="6" y="11" rx="2.5" ry="2.5000005" /><rect style="fill:#f9f9f9;fill-opacity:1;stroke:none" width="26" height="5.999979" x="9" y="14.000021" /><path style="fill:#f9f9f9;fill-opacity:1;stroke:none" d="m-5 17a2 2 0 1 1-4 0 2 2 0 1 1 4 0z" transform="matrix(1.5000001,0,0,1.5,53.5,-8.5)" /><path transform="matrix(1.5,0,0,1.5,62.5,-8.5)" d="m-5 17a2 2 0 1 1-4 0 2 2 0 1 1 4 0z" style="fill:#f9f9f9;fill-opacity:1;stroke:none" /><rect y="46" x="10" height="5.999979" width="25.999998" style="fill:#f9f9f9;fill-opacity:1;stroke:none" /><rect style="fill:#f9f9f9;fill-opacity:1;stroke:none" width="26" height="5.9999809" x="9" y="30" /><path transform="matrix(1.5000001,0,0,1.5,53.5,7.5)" d="m-5 17a2 2 0 1 1-4 0 2 2 0 1 1 4 0z" style="fill:#f9f9f9;fill-opacity:1;stroke:none" /><path style="fill:#f9f9f9;fill-opacity:1;stroke:none" d="m-5 17a2 2 0 1 1-4 0 2 2 0 1 1 4 0z" transform="matrix(1.5,0,0,1.5,62.5,7.5)" /><path style="fill:#f9f9f9;fill-opacity:1;stroke:none" d="m-5 17a2 2 0 1 1-4 0 2 2 0 1 1 4 0z" transform="matrix(1.5000001,0,0,1.5,53.5,23.5)" /><path transform="matrix(1.5,0,0,1.5,62.5,23.5)" d="m-5 17a2 2 0 1 1-4 0 2 2 0 1 1 4 0z" style="fill:#f9f9f9;fill-opacity:1;stroke:none" /></svg>