<svg xmlns="http://www.w3.org/2000/svg" width="48" height="48" viewBox="0 0 48 48"><defs><linearGradient id="gp" x1="0" y1="0" x2="0" y2="1"><stop offset="0" stop-color="#FFFFFF"/><stop offset="1" stop-color="#E8F0F8"/></linearGradient></defs><path d="M11 4h18l9 9v29a2 2 0 0 1-2 2H11a2 2 0 0 1-2-2V6a2 2 0 0 1 2-2z" fill="url(#gp)" stroke="#A8BDD2" stroke-width="1.2"/><path d="M29 4l9 9h-7a2 2 0 0 1-2-2z" fill="#CFDEEC" stroke="#A8BDD2" stroke-width="1.2"/><g transform="translate(24 26) scale(0.708)" opacity="1"><path d="M12 2l3 6.8 7.4.7-5.6 4.9 1.7 7.2L12 17.8 5.5 21.6l1.7-7.2L1.6 9.5 9 8.8z" fill="#E08A1E"/></g></svg>