<svg xmlns="http://www.w3.org/2000/svg" height="128px" viewBox="0 0 128 128" width="128px"><linearGradient id="a" gradientUnits="userSpaceOnUse" x1="64" x2="64" y1="276" y2="284"><stop offset="0" stop-color="#414140" /><stop offset="1" stop-color="#949390" /></linearGradient><linearGradient id="b" gradientUnits="userSpaceOnUse" x1="18.20984075" x2="109.79022225" y1="102" y2="102"><stop offset="0" stop-color="#c7c6c3" /><stop offset="0.024221" stop-color="#e8e7e3" /><stop offset="0.0686115" stop-color="#cbcac7" /><stop offset="0.916655" stop-color="#cbcac7" /><stop offset="0.960246" stop-color="#eae8e4" /><stop offset="1" stop-color="#acaba8" /></linearGradient><linearGradient id="c" gradientTransform="matrix(0.2875 0 0 0.27027 -331.600006 -696.756775)" gradientUnits="userSpaceOnUse" x1="1376" x2="1376" y1="2692" y2="2932"><stop offset="0" stop-color="#f6f5f4" /><stop offset="1" stop-color="#fff" /></linearGradient><linearGradient id="d" gradientUnits="userSpaceOnUse" x1="82.25" x2="82.25" y1="12" y2="26"><stop offset="0" stop-color="#deddda" /><stop offset="1" stop-color="#9a9996" /></linearGradient><path d="m83 286l-14-14m-24 14l14-14" fill="none" stroke="url(#a)" stroke-linecap="round" stroke-width="6" transform="matrix(1 0 0 1 0 -172)" /><path d="m24 24h80c3.31 0 6 2.69 6 6v68c0 3.31-2.69 6-6 6h-80c-3.31 0-6-2.69-6-6v-68c0-3.31 2.69-6 6-6zm0 0" fill="url(#b)" /><path d="m24 20h80c3.31 0 6 2.69 6 6v68c0 3.31-2.69 6-6 6h-80c-3.31 0-6-2.69-6-6v-68c0-3.31 2.69-6 6-6zm0 0" fill="url(#c)" /><path d="m20 12h88c4.42 0 8 3.58 8 8s-3.58 8-8 8h-88c-4.42 0-8-3.58-8-8s3.58-8 8-8zm0 0" fill="url(#d)" /><path d="m69.89 70c-.65 5.8-4.08 10.95-9.2 13.77c-.96 .53-2.62 1.22-3.69 1.53c-5.61 1.62-11.68 .42-16.23-3.23c-.86-.69-2.13-1.96-2.82-2.82c-3.65-4.56-4.86-10.62-3.23-16.23c.31-1.06 1-2.72 1.53-3.69c2.82-5.12 7.96-8.55 13.77-9.2c1.1-.12 2 .79 2 1.89v14c0 1.11 .89 2 2 2h14c1.11 0 2.01 .9 1.89 2zm0 0" fill="#1a5fb4" stroke="#204a87" stroke-width="0.0018155" /><path d="m58 46.11c8.34 .92 14.97 7.55 15.89 15.89c.12 1.1-.79 2-1.89 2h-14c-1.11 0-2-.89-2-2v-14c0-1.11 .9-2.01 2-1.89zm0 0" fill="#26a269" stroke="#204a87" stroke-width="0.0018155" /><path d="m84 80h10c1.11 0 2 .89 2 2s-.89 2-2 2h-10c-1.11 0-2-.89-2-2s.89-2 2-2zm0-10h10c1.11 0 2 .89 2 2s-.89 2-2 2h-10c-1.11 0-2-.89-2-2s.89-2 2-2zm0-10h10c1.11 0 2 .89 2 2s-.89 2-2 2h-10c-1.11 0-2-.89-2-2s.89-2 2-2zm0-10h10c1.11 0 2 .89 2 2s-.89 2-2 2h-10c-1.11 0-2-.89-2-2s.89-2 2-2zm0-10h10c1.11 0 2 .89 2 2s-.89 2-2 2h-10c-1.11 0-2-.89-2-2s.89-2 2-2zm0 0" fill="#d5d3cf" /><path d="m69.89 68c-.65 5.8-4.08 10.95-9.2 13.77c-.96 .53-2.62 1.22-3.69 1.53c-5.61 1.62-11.68 .42-16.23-3.23c-.86-.69-2.13-1.96-2.82-2.82c-3.65-4.56-4.86-10.62-3.23-16.23c.31-1.06 1-2.72 1.53-3.69c2.82-5.12 7.96-8.55 13.77-9.2c1.1-.12 2 .79 2 1.89v14c0 1.11 .89 2 2 2h14c1.11 0 2.01 .9 1.89 2zm0 0" fill="#4a86cf" stroke="#204a87" stroke-width="0.0018155" /><path d="m58 44.11c8.34 .92 14.97 7.55 15.89 15.89c.12 1.1-.79 2-1.89 2h-14c-1.11 0-2-.89-2-2v-14c0-1.11 .9-2.01 2-1.89zm0 0" fill="#50db81" stroke="#204a87" stroke-width="0.0018155" /><path d="m18 18h92" fill="none" stroke="#deddda" stroke-linecap="round" stroke-width="4" /></svg>