<svg xmlns="http://www.w3.org/2000/svg" height="16px" viewBox="0 0 16 16" width="16px"><path d="m8.488 .02c-4.129 0-7.488 3.355-7.488 7.488c0 4.129 3.359 7.484 7.488 7.484c4.129 0 7.488-3.355 7.488-7.484c0-4.133-3.359-7.488-7.488-7.488zm0 1.973c3.051 0 5.512 2.465 5.512 5.516c0 3.047-2.461 5.512-5.512 5.512s-5.512-2.465-5.512-5.512c0-3.051 2.461-5.516 5.512-5.516zm3.008 2.008c-.031 0-.066 0-.102 .008c-.098 .023-.184 .078-.25 .156l-2.656 2.656l-1.656-1.656c-.109-.18-.312-.27-.516-.234c-.207 .039-.363 .199-.402 .402c-.039 .203 .055 .41 .23 .52l2 2c.191 .18 .496 .18 .688 0l3-3c.137-.141 .18-.352 .109-.535c-.074-.184-.246-.309-.445-.316zm0 0" fill="#2e3436" /></svg>