<svg xmlns="http://www.w3.org/2000/svg" width="16" height="16"><defs><style id="current-color-scheme" type="text/css"> .ColorScheme-Text { color: #00cce5; } .ColorScheme-Highlight { color: #1AD6AB; } </style><linearGradient x1="0%" x2="0%" y1="0%" y2="100%"><stop offset="0%" style="stop-color: #dd9b44; stop-opacity: 1" /><stop offset="100%" style="stop-color: #ad6c16; stop-opacity: 1" /></linearGradient><linearGradient x1="0%" x2="0%" y1="0%" y2="100%"><stop offset="0%" style="stop-color: #09D4DF; stop-opacity: 1" /><stop offset="100%" style="stop-color: #9269F4; stop-opacity: 1" /></linearGradient><linearGradient x1="0%" x2="0%" y1="0%" y2="100%"><stop offset="0" style="stop-color: #0abdc6; stop-opacity: 1" /><stop offset="1" style="stop-color: #ea00d9; stop-opacity: 1" /></linearGradient><linearGradient x1="0%" x2="0%" y1="0%" y2="100%"><stop offset="0%" style="stop-color: #1AD6AB; stop-opacity: 1" /><stop offset="100%" style="stop-color: #329DB6; stop-opacity: 1" /></linearGradient><linearGradient id="oomox" x1="0%" x2="0%" y1="0%" y2="100%"><stop offset="0%" style="stop-color: #9d72ff; stop-opacity: 1" /><stop offset="100%" style="stop-color: #005aa5; stop-opacity: 1" /></linearGradient><linearGradient x1="0%" x2="0%" y1="0%" y2="100%"><stop offset="0%" style="stop-color: #00F260; stop-opacity: 1" /><stop offset="100%" style="stop-color: #0575E6; stop-opacity: 1" /></linearGradient><linearGradient x1="0%" x2="0%" y1="0%" y2="100%"><stop offset="0%" style="stop-color: #FF8501; stop-opacity: 1" /><stop offset="100%" style="stop-color: #FFCB01; stop-opacity: 1" /></linearGradient><linearGradient x1="0%" x2="0%" y1="0%" y2="100%"><stop offset="0%" style="stop-color: #b2ced6; stop-opacity: 1" /><stop offset="100%" style="stop-color: #6da5b7; stop-opacity: 1" /></linearGradient><linearGradient x1="0%" x2="0%" y1="0%" y2="100%"><stop offset="0%" style="stop-color: #df5940; stop-opacity: 1" /><stop offset="25%" style="stop-color: #d8d15f; stop-opacity: 1" /><stop offset="50%" style="stop-color: #e9882a; stop-opacity: 1" /><stop offset="100%" style="stop-color: #279362; stop-opacity: 1" /></linearGradient><linearGradient x1="0%" x2="0%" y1="0%" y2="100%"><stop offset="0%" style="stop-color: #f618c7; stop-opacity: 1" /><stop offset="20%" style="stop-color: #94ffab; stop-opacity: 1" /><stop offset="50%" style="stop-color: #fbfd54; stop-opacity: 1" /><stop offset="100%" style="stop-color: #0f83ae; stop-opacity: 1" /></linearGradient></defs><g transform="translate(-332,-60.000004)"><path fill="url(#oomox)" class="ColorScheme-Text" d="m347 62.5c0-1.375-1.125-2.5-2.5-2.5-1.375 0-2.5 1.125-2.5 2.5 0 1.375 1.125 2.5 2.5 2.5 1.375 0 2.5-1.125 2.5-2.5zm0 10c0-1.375-1.125-2.5-2.5-2.5-1.375 0-2.5 1.125-2.5 2.5 0 1.375 1.125 2.5 2.5 2.5 1.375 0 2.5-1.125 2.5-2.5zm-1-10c0 .834-.666 1.5-1.5 1.5-.834 0-1.5-.666-1.5-1.5 0-.834 .666-1.5 1.5-1.5 .834 0 1.5 .666 1.5 1.5zm0 10c0 .834-.666 1.5-1.5 1.5-.834 0-1.5-.666-1.5-1.5 0-.834 .666-1.5 1.5-1.5 .834 0 1.5 .666 1.5 1.5zm-4.266-7.891c-.204-.265-.372-.555-.494-.871l-3.854 2.143c-.459-.534-1.131-.881-1.887-.881-1.375 0-2.5 1.125-2.5 2.5 0 1.375 1.125 2.5 2.5 2.5 .755 0 1.427-.347 1.887-.881l3.854 2.143c.122-.316 .29-.606 .494-.871l-3.861-2.145c.075-.237 .127-.485 .127-.746 0-.261-.052-.509-.127-.746zM337 67.5c0 .834-.666 1.5-1.5 1.5-.834 0-1.5-.666-1.5-1.5 0-.834 .666-1.5 1.5-1.5 .834 0 1.5 .666 1.5 1.5z" /></g></svg>